<?xml version="1.0" encoding="UTF-8" standalone="no" ?>
<!DOCTYPE svg PUBLIC "-//W3C//DTD SVG 1.1//EN" "http://www.w3.org/Graphics/SVG/1.1/DTD/svg11.dtd">
<svg xmlns="http://www.w3.org/2000/svg" xmlns:xlink="http://www.w3.org/1999/xlink" version="1.1" width="200" height="200" viewBox="0 0 200 200" xml:space="preserve">
<desc>Created with Fabric.js 5.2.4</desc>
<defs>
</defs>
<rect x="0" y="0" width="100%" height="100%" fill="transparent"></rect>
<g transform="matrix(1 0 0 1 100 100)" id="c57c18da-7951-41cb-95f6-ae07f71db34a">
<rect style="stroke: none; stroke-width: 1px; stroke-dasharray: none; stroke-linecap: butt; stroke-dashoffset: 0; stroke-linejoin: miter; stroke-miterlimit: 4; fill: #fff; fill-rule: nonzero; opacity: 1; visibility: hidden" vector-effect="non-scaling-stroke" x="-100" y="-100" rx="0" ry="0" width="200" height="200"></rect>
</g>
<g transform="matrix(0 0 0 0 0 0)" id="0d717ee9-3cf3-4231-932a-f19b3dd0b530">
</g>
<g transform="matrix(0.36 0 0 0.36 100 100)">
<g style="" vector-effect="non-scaling-stroke">
		<g transform="matrix(1 0 0 1 -45.45 -111.86)">
<path style="stroke: none; stroke-width: 1px; stroke-dasharray: none; stroke-linecap: butt; stroke-dashoffset: 0; stroke-linejoin: miter; stroke-miterlimit: 4; fill: #e9e8e8; fill-rule: nonzero; opacity: 1" vector-effect="non-scaling-stroke" transform=" translate(-189.55, -123.14)" d="M 100.354 98.138 L 263.75 98.138 C 267.885 98.138 271.25 101.50200000000001 271.25 105.638 C 271.25 109.774 267.885 113.138 263.75 113.138 L 206.25 113.138 C 192.465 113.138 181.25 124.35300000000001 181.25 138.138 C 181.25 151.923 192.465 163.138 206.25 163.138 C 210.392 163.138 213.75 159.781 213.75 155.638 C 213.75 151.495 210.392 148.138 206.25 148.138 C 200.736 148.138 196.25 143.65200000000002 196.25 138.138 C 196.25 132.624 200.736 128.138 206.25 128.138 L 263.75 128.138 C 276.157 128.138 286.25 118.04400000000001 286.25 105.638 C 286.25 93.232 276.157 83.138 263.75 83.138 L 100.354 83.138 C 96.212 83.138 92.854 86.495 92.854 90.638 C 92.854 94.781 96.212 98.138 100.354 98.138 z" stroke-linecap="round"></path>
</g>
		<g transform="matrix(1 0 0 1 91.04 -79.36)">
<path style="stroke: none; stroke-width: 1px; stroke-dasharray: none; stroke-linecap: butt; stroke-dashoffset: 0; stroke-linejoin: miter; stroke-miterlimit: 4; fill: #e9e8e8; fill-rule: nonzero; opacity: 1" vector-effect="non-scaling-stroke" transform=" translate(-326.04, -155.64)" d="M 228.75 155.638 C 228.75 159.781 232.108 163.138 236.25 163.138 L 415.836 163.138 C 419.978 163.138 423.336 159.781 423.336 155.638 C 423.336 151.495 419.978 148.138 415.836 148.138 L 236.25 148.138 C 232.108 148.138 228.75 151.495 228.75 155.638 z" stroke-linecap="round"></path>
</g>
		<g transform="matrix(1 0 0 1 0 73.13)">
<path style="stroke: none; stroke-width: 1px; stroke-dasharray: none; stroke-linecap: butt; stroke-dashoffset: 0; stroke-linejoin: miter; stroke-miterlimit: 4; fill: #e9e8e8; fill-rule: nonzero; opacity: 1" vector-effect="non-scaling-stroke" transform=" translate(-235, -308.14)" d="M 423.329 315.773 C 423.406 315.50500000000005 423.468 315.232 423.515 314.95700000000005 C 423.527 314.88900000000007 423.532 314.821 423.542 314.75300000000004 C 423.573 314.53800000000007 423.59499999999997 314.32200000000006 423.60699999999997 314.105 C 423.611 314.022 423.614 313.939 423.616 313.857 C 423.621 313.64000000000004 423.615 313.422 423.601 313.204 C 423.597 313.13800000000003 423.595 313.072 423.589 313.00600000000003 C 423.537 312.44000000000005 423.42 311.87500000000006 423.234 311.321 C 423.212 311.25600000000003 423.185 311.192 423.161 311.127 C 423.088 310.926 423.007 310.728 422.915 310.532 C 422.874 310.443 422.829 310.356 422.78400000000005 310.269 C 422.74300000000005 310.189 422.70900000000006 310.108 422.665 310.029 L 396.156 262.796 L 401.599 262.796 C 404.262 262.796 406.72499999999997 261.384 408.07099999999997 259.085 C 409.417 256.787 409.443 253.94699999999997 408.13899999999995 251.62499999999997 L 367.99899999999997 180.10499999999996 C 366.671 177.73999999999995 364.16999999999996 176.27599999999995 361.45799999999997 176.27599999999995 C 358.746 176.27599999999995 356.24499999999995 177.73999999999995 354.917 180.10499999999996 L 314.777 251.62499999999994 C 313.474 253.94699999999995 313.5 256.7869999999999 314.84499999999997 259.0849999999999 C 316.191 261.3839999999999 318.654 262.79599999999994 321.31699999999995 262.79599999999994 L 326.76099999999997 262.79599999999994 L 301.46599999999995 307.86499999999995 C 299.55799999999994 308.501 297.97399999999993 309.23099999999994 296.537 309.89699999999993 C 296.42699999999996 309.9479999999999 296.32 309.99699999999996 296.212 310.0469999999999 C 296.203 310.0299999999999 269.69399999999996 262.79599999999994 269.69399999999996 262.79599999999994 L 275.138 262.79599999999994 C 277.801 262.79599999999994 280.26399999999995 261.38399999999996 281.60999999999996 259.0849999999999 C 282.95599999999996 256.7869999999999 282.98199999999997 253.94699999999992 281.67799999999994 251.62499999999991 L 241.53799999999995 180.1049999999999 C 240.20999999999995 177.7399999999999 237.70899999999995 176.2759999999999 234.99699999999996 176.2759999999999 C 232.28499999999997 176.2759999999999 229.78399999999996 177.7399999999999 228.45599999999996 180.1049999999999 L 188.31599999999997 251.6249999999999 C 187.01299999999998 253.9469999999999 187.039 256.78699999999986 188.384 259.08499999999987 C 189.73 261.38399999999984 192.19299999999998 262.7959999999999 194.856 262.7959999999999 L 200.29999999999998 262.7959999999999 L 173.79 310.0289999999999 C 173.684 309.9909999999999 173.584 309.9439999999999 173.48 309.8959999999999 C 172.036 309.2269999999999 170.444 308.4919999999999 168.522 307.8539999999999 L 143.233 262.79499999999996 L 148.677 262.79499999999996 C 151.34 262.79499999999996 153.803 261.383 155.149 259.08399999999995 C 156.495 256.78599999999994 156.52100000000002 253.94599999999994 155.217 251.62399999999994 L 115.07700000000001 180.10399999999993 C 113.74900000000001 177.73899999999992 111.24800000000002 176.27499999999992 108.53600000000002 176.27499999999992 C 105.82400000000001 176.27499999999992 103.32300000000002 177.73899999999992 101.99500000000002 180.10399999999993 L 61.85500000000002 251.6239999999999 C 60.55200000000002 253.9459999999999 60.57800000000002 256.7859999999999 61.923000000000016 259.0839999999999 C 63.26900000000002 261.38299999999987 65.73200000000001 262.7949999999999 68.39500000000001 262.7949999999999 L 73.83800000000001 262.7949999999999 L 47.328 310.0279999999999 C 47.284000000000006 310.1069999999999 47.25 310.18799999999993 47.209 310.2679999999999 C 47.164 310.3549999999999 47.120000000000005 310.4419999999999 47.078 310.5309999999999 C 46.986000000000004 310.7269999999999 46.905 310.9259999999999 46.832 311.1259999999999 C 46.808 311.1909999999999 46.781 311.2539999999999 46.759 311.31999999999994 C 46.573 311.8739999999999 46.457 312.43799999999993 46.404 313.00499999999994 C 46.398 313.0709999999999 46.396 313.13699999999994 46.392 313.2029999999999 C 46.378 313.42099999999994 46.372 313.6379999999999 46.377 313.85599999999994 C 46.379000000000005 313.93899999999996 46.381 314.02099999999996 46.386 314.1039999999999 C 46.398 314.32199999999995 46.42 314.5369999999999 46.451 314.75199999999995 C 46.461 314.81999999999994 46.466 314.888 46.478 314.95599999999996 C 46.525 315.23199999999997 46.587 315.50399999999996 46.664 315.77299999999997 C 46.681000000000004 315.83399999999995 46.705 315.893 46.724000000000004 315.953 C 46.791000000000004 316.166 46.867000000000004 316.376 46.953 316.582 C 46.969 316.62 46.978 316.659 46.995000000000005 316.697 C 55.17100000000001 335.44100000000003 66.11500000000001 352.855 79.524 368.457 C 81.007 370.183 83.105 371.068 85.215 371.068 C 86.94500000000001 371.068 88.685 370.472 90.10000000000001 369.255 C 93.24100000000001 366.556 93.599 361.82 90.89900000000002 358.679 C 82.02200000000002 348.34999999999997 74.31000000000002 337.16499999999996 67.86700000000002 325.289 C 70.78900000000002 326.34 74.49400000000001 327.197 79.75000000000001 327.197 C 87.87500000000001 327.197 92.29400000000001 325.148 95.84500000000001 323.501 C 98.73000000000002 322.164 100.81500000000001 321.197 105.63100000000001 321.197 C 110.44600000000001 321.197 112.53000000000002 322.164 115.41500000000002 323.501 C 118.96600000000002 325.14799999999997 123.38500000000002 327.197 131.50900000000001 327.197 C 139.633 327.197 144.05100000000002 325.147 147.602 323.501 C 150.486 322.164 152.57 321.197 157.385 321.197 C 162.2 321.197 164.283 322.164 167.16799999999998 323.501 C 170.71899999999997 325.147 175.13799999999998 327.197 183.26199999999997 327.197 C 191.38499999999996 327.197 195.80399999999997 325.147 199.35499999999996 323.501 C 202.23899999999995 322.164 204.32299999999995 321.197 209.13799999999995 321.197 C 213.95099999999994 321.197 216.03499999999994 322.164 218.91899999999995 323.501 C 222.46999999999994 325.147 226.88799999999995 327.197 235.01099999999997 327.197 C 243.13399999999996 327.197 247.55299999999997 325.147 251.10299999999995 323.501 C 253.98599999999996 322.164 256.06999999999994 321.197 260.8829999999999 321.197 C 265.6959999999999 321.197 267.77899999999994 322.164 270.6619999999999 323.501 C 274.21199999999993 325.147 278.62999999999994 327.197 286.7519999999999 327.197 C 294.8749999999999 327.197 299.29399999999987 325.147 302.8449999999999 323.501 C 305.7289999999999 322.164 307.8119999999999 321.197 312.6259999999999 321.197 C 317.4389999999999 321.197 319.5229999999999 322.164 322.4069999999999 323.501 C 325.9579999999999 325.147 330.3759999999999 327.197 338.4989999999999 327.197 C 345.1269999999999 327.197 349.1969999999999 325.847 352.3049999999999 324.528 C 356.1169999999999 322.908 357.89499999999987 318.505 356.2749999999999 314.692 C 354.655 310.879 350.25299999999993 309.10200000000003 346.43999999999994 310.721 C 344.68299999999994 311.468 342.62299999999993 312.197 338.49999999999994 312.197 C 333.68699999999995 312.197 331.60299999999995 311.23 328.71899999999994 309.89300000000003 C 326.28899999999993 308.766 323.44999999999993 307.451 319.29799999999994 306.733 L 346.10799999999995 258.964 C 347.41099999999994 256.642 347.38499999999993 253.802 346.03999999999996 251.504 C 344.69399999999996 249.20499999999998 342.23099999999994 247.79299999999998 339.568 247.79299999999998 L 334.12399999999997 247.79299999999998 L 361.45399999999995 199.09799999999998 L 388.78399999999993 247.79299999999998 L 383.34099999999995 247.79299999999998 C 380.67799999999994 247.79299999999998 378.215 249.20499999999998 376.86899999999997 251.504 C 375.52299999999997 253.802 375.49699999999996 256.642 376.801 258.964 L 404.359 308.066 C 402.714 308.65099999999995 401.31199999999995 309.298 400.02799999999996 309.89399999999995 C 397.14399999999995 311.23099999999994 395.061 312.1979999999999 390.24699999999996 312.1979999999999 C 386.12399999999997 312.1979999999999 384.06399999999996 311.46899999999994 382.30699999999996 310.7219999999999 C 378.49399999999997 309.1039999999999 374.09099999999995 310.87999999999994 372.472 314.6929999999999 C 370.853 318.5059999999999 372.63 322.90899999999993 376.442 324.52899999999994 C 379.54900000000004 325.84799999999996 383.619 327.1979999999999 390.247 327.1979999999999 C 395.505 327.1979999999999 399.211 326.3399999999999 402.134 325.2869999999999 C 369.091 386.354 305.133 425 235 425 C 189.66899999999998 425 145.745 408.698 111.317 379.099 C 108.175 376.397 103.44099999999999 376.756 100.74 379.896 C 98.039 383.03700000000003 98.39699999999999 387.772 101.53699999999999 390.47200000000004 C 138.686 422.411 186.083 440 235 440 C 316.533 440 390.327 391.601 422.998 316.698 C 423.015 316.65999999999997 423.024 316.62 423.03999999999996 316.582 C 423.12499999999994 316.377 423.20099999999996 316.168 423.268 315.956 C 423.287 315.895 423.311 315.835 423.329 315.773 z M 141.298 309.896 C 138.41400000000002 311.233 136.33 312.2 131.51500000000001 312.2 C 126.70000000000002 312.2 124.61600000000001 311.233 121.73200000000001 309.896 C 118.18100000000001 308.25 113.76200000000001 306.2 105.638 306.2 C 97.513 306.2 93.09400000000001 308.24899999999997 89.543 309.896 C 86.658 311.233 84.57300000000001 312.2 79.757 312.2 C 74.941 312.2 72.857 311.233 69.971 309.896 C 68.686 309.3 67.284 308.652 65.638 308.067 L 93.19500000000001 258.966 C 94.498 256.644 94.47200000000001 253.804 93.12700000000001 251.506 C 91.781 249.207 89.31800000000001 247.795 86.65500000000002 247.795 L 81.21200000000002 247.795 L 108.54200000000002 199.1 L 135.872 247.795 L 130.42800000000003 247.795 C 127.76500000000003 247.795 125.30200000000002 249.207 123.95600000000003 251.506 C 122.61000000000003 253.804 122.58400000000003 256.644 123.88800000000003 258.966 L 150.70000000000005 306.73900000000003 C 146.558 307.458 143.724 308.771 141.298 309.896 z M 260.888 306.199 C 252.765 306.199 248.34599999999998 308.249 244.796 309.89500000000004 C 241.91299999999998 311.232 239.82899999999998 312.199 235.016 312.199 C 230.203 312.199 228.119 311.232 225.23499999999999 309.89500000000004 C 221.684 308.249 217.266 306.199 209.14299999999997 306.199 C 201.01899999999998 306.199 196.60099999999997 308.249 193.04999999999998 309.89500000000004 C 192.134 310.32000000000005 191.29799999999997 310.70700000000005 190.42899999999997 311.038 L 219.65399999999997 258.966 C 220.95699999999997 256.644 220.93099999999995 253.804 219.58599999999996 251.506 C 218.23999999999995 249.207 215.77699999999996 247.795 213.11399999999995 247.795 L 207.66999999999996 247.795 L 235 199.1 L 262.33 247.795 L 256.88599999999997 247.795 C 254.22299999999996 247.795 251.75999999999996 249.207 250.41399999999996 251.506 C 249.06799999999996 253.804 249.04199999999994 256.644 250.34599999999995 258.966 L 279.56399999999996 311.026 C 278.70899999999995 310.69800000000004 277.883 310.315 276.979 309.896 C 273.429 308.249 269.011 306.199 260.888 306.199 z" stroke-linecap="round"></path>
</g>
		<g transform="matrix(1 0 0 1 0 0)">
<path style="stroke: none; stroke-width: 1px; stroke-dasharray: none; stroke-linecap: butt; stroke-dashoffset: 0; stroke-linejoin: miter; stroke-miterlimit: 4; fill: #e9e8e8; fill-rule: nonzero; opacity: 1" vector-effect="non-scaling-stroke" transform=" translate(-235, -235)" d="M 401.17 68.83 C 356.785 24.444 297.771 0 235 0 C 172.22899999999998 0 113.215 24.444 68.83 68.83 C 24.444 113.216 0 172.229 0 235 C 0 297.77099999999996 24.444 356.784 68.83 401.16999999999996 C 113.215 445.556 172.229 470 235 470 C 297.77099999999996 470 356.78499999999997 445.556 401.16999999999996 401.17 C 445.556 356.784 470 297.771 470 235 C 470 172.22899999999998 445.556 113.216 401.17 68.83 z M 235 455 C 113.691 455 15 356.30899999999997 15 235 C 15 113.69100000000003 113.691 15 235 15 C 356.30899999999997 15 455 113.691 455 235 C 455 356.30899999999997 356.309 455 235 455 z" stroke-linecap="round"></path>
</g>
		<g transform="matrix(1 0 0 1 103.75 -114.36)">
<path style="stroke: none; stroke-width: 1px; stroke-dasharray: none; stroke-linecap: butt; stroke-dashoffset: 0; stroke-linejoin: miter; stroke-miterlimit: 4; fill: #e9e8e8; fill-rule: nonzero; opacity: 1" vector-effect="non-scaling-stroke" transform=" translate(-338.75, -120.64)" d="M 338.75 133.138 C 342.892 133.138 346.25 129.781 346.25 125.638 L 346.25 115.638 C 346.25 111.495 342.892 108.138 338.75 108.138 C 334.608 108.138 331.25 111.495 331.25 115.638 L 331.25 125.638 C 331.25 129.78 334.608 133.138 338.75 133.138 z" stroke-linecap="round"></path>
</g>
		<g transform="matrix(1 0 0 1 133.75 -114.36)">
<path style="stroke: none; stroke-width: 1px; stroke-dasharray: none; stroke-linecap: butt; stroke-dashoffset: 0; stroke-linejoin: miter; stroke-miterlimit: 4; fill: #e9e8e8; fill-rule: nonzero; opacity: 1" vector-effect="non-scaling-stroke" transform=" translate(-368.75, -120.64)" d="M 368.75 133.138 C 372.892 133.138 376.25 129.781 376.25 125.638 L 376.25 115.638 C 376.25 111.495 372.892 108.138 368.75 108.138 C 364.608 108.138 361.25 111.495 361.25 115.638 L 361.25 125.638 C 361.25 129.78 364.608 133.138 368.75 133.138 z" stroke-linecap="round"></path>
</g>
		<g transform="matrix(1 0 0 1 163.75 -109.36)">
<circle style="stroke: none; stroke-width: 1px; stroke-dasharray: none; stroke-linecap: butt; stroke-dashoffset: 0; stroke-linejoin: miter; stroke-miterlimit: 4; fill: #e9e8e8; fill-rule: nonzero; opacity: 1" vector-effect="non-scaling-stroke" cx="0" cy="0" r="7.5"></circle>
</g>
		<g transform="matrix(1 0 0 1 73.75 -114.36)">
<path style="stroke: none; stroke-width: 1px; stroke-dasharray: none; stroke-linecap: butt; stroke-dashoffset: 0; stroke-linejoin: miter; stroke-miterlimit: 4; fill: #e9e8e8; fill-rule: nonzero; opacity: 1" vector-effect="non-scaling-stroke" transform=" translate(-308.75, -120.64)" d="M 308.75 133.138 C 312.892 133.138 316.25 129.781 316.25 125.638 L 316.25 115.638 C 316.25 111.495 312.892 108.138 308.75 108.138 C 304.608 108.138 301.25 111.495 301.25 115.638 L 301.25 125.638 C 301.25 129.78 304.608 133.138 308.75 133.138 z" stroke-linecap="round"></path>
</g>
		<g transform="matrix(1 0 0 1 -31.25 -179.36)">
<path style="stroke: none; stroke-width: 1px; stroke-dasharray: none; stroke-linecap: butt; stroke-dashoffset: 0; stroke-linejoin: miter; stroke-miterlimit: 4; fill: #e9e8e8; fill-rule: nonzero; opacity: 1" vector-effect="non-scaling-stroke" transform=" translate(-203.75, -55.64)" d="M 203.75 68.138 C 207.892 68.138 211.25 64.781 211.25 60.638000000000005 L 211.25 50.638000000000005 C 211.25 46.495000000000005 207.892 43.138000000000005 203.75 43.138000000000005 C 199.608 43.138000000000005 196.25 46.495000000000005 196.25 50.638000000000005 L 196.25 60.638000000000005 C 196.25 64.78 199.608 68.138 203.75 68.138 z" stroke-linecap="round"></path>
</g>
		<g transform="matrix(1 0 0 1 -1.25 -179.36)">
<path style="stroke: none; stroke-width: 1px; stroke-dasharray: none; stroke-linecap: butt; stroke-dashoffset: 0; stroke-linejoin: miter; stroke-miterlimit: 4; fill: #e9e8e8; fill-rule: nonzero; opacity: 1" vector-effect="non-scaling-stroke" transform=" translate(-233.75, -55.64)" d="M 233.75 68.138 C 237.892 68.138 241.25 64.781 241.25 60.638000000000005 L 241.25 50.638000000000005 C 241.25 46.495000000000005 237.892 43.138000000000005 233.75 43.138000000000005 C 229.608 43.138000000000005 226.25 46.495000000000005 226.25 50.638000000000005 L 226.25 60.638000000000005 C 226.25 64.78 229.608 68.138 233.75 68.138 z" stroke-linecap="round"></path>
</g>
		<g transform="matrix(1 0 0 1 28.75 -179.36)">
<path style="stroke: none; stroke-width: 1px; stroke-dasharray: none; stroke-linecap: butt; stroke-dashoffset: 0; stroke-linejoin: miter; stroke-miterlimit: 4; fill: #e9e8e8; fill-rule: nonzero; opacity: 1" vector-effect="non-scaling-stroke" transform=" translate(-263.75, -55.64)" d="M 263.75 68.138 C 267.892 68.138 271.25 64.781 271.25 60.638000000000005 L 271.25 50.638000000000005 C 271.25 46.495000000000005 267.892 43.138000000000005 263.75 43.138000000000005 C 259.608 43.138000000000005 256.25 46.495000000000005 256.25 50.638000000000005 L 256.25 60.638000000000005 C 256.25 64.78 259.608 68.138 263.75 68.138 z" stroke-linecap="round"></path>
</g>
		<g transform="matrix(1 0 0 1 -91.25 -174.36)">
<circle style="stroke: none; stroke-width: 1px; stroke-dasharray: none; stroke-linecap: butt; stroke-dashoffset: 0; stroke-linejoin: miter; stroke-miterlimit: 4; fill: #e9e8e8; fill-rule: nonzero; opacity: 1" vector-effect="non-scaling-stroke" cx="0" cy="0" r="7.5"></circle>
</g>
		<g transform="matrix(1 0 0 1 -61.25 -179.36)">
<path style="stroke: none; stroke-width: 1px; stroke-dasharray: none; stroke-linecap: butt; stroke-dashoffset: 0; stroke-linejoin: miter; stroke-miterlimit: 4; fill: #e9e8e8; fill-rule: nonzero; opacity: 1" vector-effect="non-scaling-stroke" transform=" translate(-173.75, -55.64)" d="M 173.75 68.138 C 177.892 68.138 181.25 64.781 181.25 60.638000000000005 L 181.25 50.638000000000005 C 181.25 46.495000000000005 177.892 43.138000000000005 173.75 43.138000000000005 C 169.608 43.138000000000005 166.25 46.495000000000005 166.25 50.638000000000005 L 166.25 60.638000000000005 C 166.25 64.78 169.608 68.138 173.75 68.138 z" stroke-linecap="round"></path>
</g>
</g>
</g>
<g transform="matrix(0 0 0 0 0 0)">
<g style="">
</g>
</g>
<g transform="matrix(0 0 0 0 0 0)">
<g style="">
</g>
</g>
</svg>