<?xml version="1.0" encoding="UTF-8"?>
<svg xmlns="http://www.w3.org/2000/svg" xmlns:xlink="http://www.w3.org/1999/xlink" width="200px" height="200px" viewBox="0 0 200 200" version="1.1">
<g id="surface1">
<path style="stroke: none; fill-rule: nonzero; fill: #e9e8e8; fill-opacity: 1" d="M 75.066406 74.65625 L 105.324219 74.65625 C 106.089844 74.65625 106.714844 75.277344 106.714844 76.042969 C 106.714844 76.808594 106.089844 77.433594 105.324219 77.433594 L 94.675781 77.433594 C 92.125 77.433594 90.046875 79.511719 90.046875 82.0625 C 90.046875 84.617188 92.125 86.691406 94.675781 86.691406 C 95.441406 86.691406 96.066406 86.070312 96.066406 85.304688 C 96.066406 84.535156 95.441406 83.914062 94.675781 83.914062 C 93.65625 83.914062 92.824219 83.082031 92.824219 82.0625 C 92.824219 81.042969 93.65625 80.210938 94.675781 80.210938 L 105.324219 80.210938 C 107.621094 80.210938 109.492188 78.339844 109.492188 76.042969 C 109.492188 73.746094 107.621094 71.878906 105.324219 71.878906 L 75.066406 71.878906 C 74.296875 71.878906 73.675781 72.5 73.675781 73.265625 C 73.675781 74.035156 74.296875 74.65625 75.066406 74.65625 Z M 75.066406 74.65625 "></path>
<path style="stroke: none; fill-rule: nonzero; fill: #e9e8e8; fill-opacity: 1" d="M 98.84375 85.304688 C 98.84375 86.070312 99.464844 86.691406 100.230469 86.691406 L 133.488281 86.691406 C 134.253906 86.691406 134.878906 86.070312 134.878906 85.304688 C 134.878906 84.535156 134.253906 83.914062 133.488281 83.914062 L 100.230469 83.914062 C 99.464844 83.914062 98.84375 84.535156 98.84375 85.304688 Z M 98.84375 85.304688 "></path>
<path style="stroke: none; fill-rule: nonzero; fill: #e9e8e8; fill-opacity: 1" d="M 134.875 114.957031 C 134.890625 114.90625 134.902344 114.855469 134.910156 114.804688 C 134.914062 114.792969 134.914062 114.78125 134.914062 114.765625 C 134.921875 114.726562 134.925781 114.6875 134.925781 114.648438 C 134.929688 114.632812 134.929688 114.617188 134.929688 114.601562 C 134.929688 114.5625 134.929688 114.519531 134.925781 114.480469 C 134.925781 114.46875 134.925781 114.457031 134.925781 114.445312 C 134.914062 114.339844 134.894531 114.234375 134.859375 114.132812 C 134.855469 114.121094 134.847656 114.109375 134.84375 114.097656 C 134.832031 114.058594 134.816406 114.023438 134.800781 113.984375 C 134.792969 113.96875 134.78125 113.953125 134.773438 113.9375 C 134.765625 113.921875 134.761719 113.90625 134.753906 113.890625 L 129.84375 105.144531 L 130.851562 105.144531 C 131.34375 105.144531 131.800781 104.882812 132.050781 104.457031 C 132.300781 104.03125 132.304688 103.507812 132.0625 103.078125 L 124.628906 89.832031 C 124.382812 89.394531 123.921875 89.125 123.417969 89.125 C 122.914062 89.125 122.453125 89.394531 122.207031 89.832031 L 114.773438 103.078125 C 114.53125 103.507812 114.535156 104.03125 114.785156 104.457031 C 115.035156 104.882812 115.492188 105.144531 115.984375 105.144531 L 116.992188 105.144531 L 112.308594 113.492188 C 111.957031 113.609375 111.660156 113.746094 111.394531 113.867188 C 111.375 113.878906 111.355469 113.886719 111.335938 113.894531 C 111.332031 113.894531 106.425781 105.144531 106.425781 105.144531 L 107.433594 105.144531 C 107.925781 105.144531 108.382812 104.882812 108.632812 104.457031 C 108.878906 104.03125 108.886719 103.507812 108.644531 103.078125 L 101.210938 89.832031 C 100.964844 89.394531 100.5 89.125 100 89.125 C 99.496094 89.125 99.035156 89.394531 98.789062 89.832031 L 91.355469 103.078125 C 91.113281 103.507812 91.117188 104.03125 91.367188 104.457031 C 91.617188 104.882812 92.074219 105.144531 92.566406 105.144531 L 93.574219 105.144531 L 88.664062 113.890625 C 88.644531 113.886719 88.625 113.875 88.605469 113.867188 C 88.339844 113.742188 88.046875 113.609375 87.6875 113.488281 L 83.007812 105.144531 L 84.015625 105.144531 C 84.507812 105.144531 84.964844 104.882812 85.210938 104.457031 C 85.460938 104.03125 85.46875 103.507812 85.226562 103.078125 L 77.792969 89.832031 C 77.546875 89.394531 77.082031 89.125 76.582031 89.125 C 76.078125 89.125 75.617188 89.394531 75.371094 89.832031 L 67.9375 103.078125 C 67.695312 103.507812 67.699219 104.03125 67.949219 104.457031 C 68.199219 104.882812 68.652344 105.144531 69.148438 105.144531 L 70.15625 105.144531 L 65.246094 113.890625 C 65.238281 113.90625 65.230469 113.921875 65.222656 113.9375 C 65.214844 113.953125 65.207031 113.96875 65.199219 113.984375 C 65.183594 114.023438 65.167969 114.058594 65.152344 114.09375 C 65.148438 114.109375 65.144531 114.121094 65.140625 114.132812 C 65.105469 114.234375 65.085938 114.339844 65.074219 114.445312 C 65.074219 114.457031 65.074219 114.46875 65.074219 114.480469 C 65.070312 114.519531 65.070312 114.5625 65.070312 114.601562 C 65.070312 114.617188 65.070312 114.632812 65.070312 114.648438 C 65.074219 114.6875 65.078125 114.726562 65.082031 114.765625 C 65.085938 114.78125 65.085938 114.792969 65.089844 114.804688 C 65.097656 114.855469 65.109375 114.90625 65.121094 114.957031 C 65.125 114.96875 65.128906 114.976562 65.132812 114.988281 C 65.144531 115.027344 65.160156 115.066406 65.175781 115.105469 C 65.179688 115.113281 65.179688 115.121094 65.183594 115.128906 C 66.699219 118.597656 68.726562 121.824219 71.207031 124.710938 C 71.484375 125.03125 71.871094 125.195312 72.261719 125.195312 C 72.582031 125.195312 72.90625 125.085938 73.167969 124.859375 C 73.75 124.359375 73.816406 123.484375 73.316406 122.902344 C 71.671875 120.988281 70.242188 118.917969 69.050781 116.71875 C 69.589844 116.914062 70.277344 117.070312 71.25 117.070312 C 72.753906 117.070312 73.574219 116.691406 74.230469 116.386719 C 74.765625 116.140625 75.152344 115.960938 76.042969 115.960938 C 76.933594 115.960938 77.320312 116.140625 77.855469 116.386719 C 78.511719 116.691406 79.332031 117.070312 80.835938 117.070312 C 82.339844 117.070312 83.15625 116.691406 83.816406 116.386719 C 84.347656 116.140625 84.734375 115.960938 85.625 115.960938 C 86.519531 115.960938 86.902344 116.140625 87.4375 116.386719 C 88.097656 116.691406 88.914062 117.070312 90.417969 117.070312 C 91.921875 117.070312 92.742188 116.691406 93.398438 116.386719 C 93.933594 116.140625 94.320312 115.960938 95.210938 115.960938 C 96.101562 115.960938 96.488281 116.140625 97.023438 116.386719 C 97.679688 116.691406 98.496094 117.070312 100.003906 117.070312 C 101.507812 117.070312 102.324219 116.691406 102.980469 116.386719 C 103.515625 116.140625 103.902344 115.960938 104.792969 115.960938 C 105.683594 115.960938 106.070312 116.140625 106.605469 116.386719 C 107.261719 116.691406 108.078125 117.070312 109.582031 117.070312 C 111.089844 117.070312 111.90625 116.691406 112.5625 116.386719 C 113.097656 116.140625 113.484375 115.960938 114.375 115.960938 C 115.265625 115.960938 115.652344 116.140625 116.1875 116.386719 C 116.84375 116.691406 117.664062 117.070312 119.167969 117.070312 C 120.394531 117.070312 121.148438 116.820312 121.722656 116.578125 C 122.429688 116.277344 122.757812 115.460938 122.457031 114.757812 C 122.160156 114.050781 121.34375 113.722656 120.636719 114.019531 C 120.3125 114.160156 119.929688 114.292969 119.167969 114.292969 C 118.273438 114.292969 117.890625 114.113281 117.355469 113.867188 C 116.90625 113.660156 116.378906 113.414062 115.609375 113.28125 L 120.574219 104.4375 C 120.816406 104.007812 120.8125 103.480469 120.5625 103.054688 C 120.3125 102.628906 119.859375 102.367188 119.363281 102.367188 L 118.355469 102.367188 L 123.417969 93.351562 L 128.480469 102.367188 L 127.46875 102.367188 C 126.976562 102.367188 126.519531 102.628906 126.273438 103.054688 C 126.023438 103.480469 126.019531 104.007812 126.257812 104.4375 L 131.363281 113.527344 C 131.058594 113.636719 130.796875 113.757812 130.5625 113.867188 C 130.027344 114.113281 129.640625 114.292969 128.75 114.292969 C 127.984375 114.292969 127.605469 114.160156 127.277344 114.019531 C 126.574219 113.722656 125.757812 114.050781 125.457031 114.757812 C 125.15625 115.460938 125.488281 116.277344 126.191406 116.578125 C 126.769531 116.820312 127.523438 117.070312 128.75 117.070312 C 129.722656 117.070312 130.410156 116.914062 130.949219 116.71875 C 124.832031 128.027344 112.988281 135.183594 100 135.183594 C 91.605469 135.183594 83.472656 132.164062 77.097656 126.683594 C 76.515625 126.183594 75.636719 126.25 75.136719 126.832031 C 74.636719 127.414062 74.703125 128.289062 75.285156 128.789062 C 82.164062 134.703125 90.941406 137.960938 100 137.960938 C 115.097656 137.960938 128.765625 129 134.8125 115.128906 C 134.816406 115.121094 134.820312 115.113281 134.820312 115.105469 C 134.839844 115.066406 134.851562 115.027344 134.863281 114.988281 C 134.867188 114.980469 134.871094 114.96875 134.875 114.957031 Z M 82.648438 113.867188 C 82.113281 114.117188 81.726562 114.292969 80.835938 114.292969 C 79.945312 114.292969 79.558594 114.117188 79.023438 113.867188 C 78.367188 113.5625 77.546875 113.183594 76.042969 113.183594 C 74.539062 113.183594 73.722656 113.5625 73.0625 113.867188 C 72.527344 114.117188 72.144531 114.292969 71.25 114.292969 C 70.359375 114.292969 69.972656 114.117188 69.4375 113.867188 C 69.199219 113.757812 68.941406 113.636719 68.636719 113.527344 L 73.738281 104.4375 C 73.980469 104.007812 73.976562 103.480469 73.726562 103.054688 C 73.476562 102.628906 73.023438 102.367188 72.527344 102.367188 L 71.519531 102.367188 L 76.582031 93.351562 L 81.644531 102.367188 L 80.636719 102.367188 C 80.140625 102.367188 79.6875 102.628906 79.4375 103.054688 C 79.1875 103.480469 79.183594 104.007812 79.421875 104.4375 L 84.390625 113.28125 C 83.621094 113.417969 83.097656 113.660156 82.648438 113.867188 Z M 104.792969 113.183594 C 103.289062 113.183594 102.472656 113.5625 101.8125 113.867188 C 101.28125 114.113281 100.894531 114.292969 100.003906 114.292969 C 99.113281 114.292969 98.726562 114.113281 98.191406 113.867188 C 97.535156 113.5625 96.714844 113.183594 95.210938 113.183594 C 93.707031 113.183594 92.890625 113.5625 92.230469 113.867188 C 92.0625 113.945312 91.90625 114.019531 91.746094 114.078125 L 97.15625 104.4375 C 97.398438 104.007812 97.394531 103.480469 97.144531 103.054688 C 96.894531 102.628906 96.441406 102.367188 95.945312 102.367188 L 94.9375 102.367188 L 100 93.351562 L 105.0625 102.367188 L 104.054688 102.367188 C 103.558594 102.367188 103.105469 102.628906 102.855469 103.054688 C 102.605469 103.480469 102.601562 104.007812 102.84375 104.4375 L 108.253906 114.078125 C 108.09375 114.015625 107.941406 113.945312 107.773438 113.867188 C 107.117188 113.5625 106.296875 113.183594 104.792969 113.183594 Z M 104.792969 113.183594 "></path>
<path style="stroke: none; fill-rule: nonzero; fill: #e9e8e8; fill-opacity: 1" d="M 130.773438 69.226562 C 122.554688 61.007812 111.625 56.480469 100 56.480469 C 88.375 56.480469 77.445312 61.007812 69.226562 69.226562 C 61.007812 77.449219 56.480469 88.375 56.480469 100 C 56.480469 111.625 61.007812 122.550781 69.226562 130.773438 C 77.445312 138.992188 88.375 143.519531 100 143.519531 C 111.625 143.519531 122.554688 138.992188 130.773438 130.773438 C 138.992188 122.550781 143.519531 111.625 143.519531 100 C 143.519531 88.375 138.992188 77.449219 130.773438 69.226562 Z M 100 140.742188 C 77.535156 140.742188 59.257812 122.464844 59.257812 100 C 59.257812 77.535156 77.535156 59.257812 100 59.257812 C 122.464844 59.257812 140.742188 77.535156 140.742188 100 C 140.742188 122.464844 122.464844 140.742188 100 140.742188 Z M 100 140.742188 "></path>
<path style="stroke: none; fill-rule: nonzero; fill: #e9e8e8; fill-opacity: 1" d="M 119.214844 81.136719 C 119.980469 81.136719 120.601562 80.515625 120.601562 79.746094 L 120.601562 77.894531 C 120.601562 77.128906 119.980469 76.507812 119.214844 76.507812 C 118.445312 76.507812 117.824219 77.128906 117.824219 77.894531 L 117.824219 79.746094 C 117.824219 80.515625 118.445312 81.136719 119.214844 81.136719 Z M 119.214844 81.136719 "></path>
<path style="stroke: none; fill-rule: nonzero; fill: #e9e8e8; fill-opacity: 1" d="M 124.769531 81.136719 C 125.535156 81.136719 126.15625 80.515625 126.15625 79.746094 L 126.15625 77.894531 C 126.15625 77.128906 125.535156 76.507812 124.769531 76.507812 C 124 76.507812 123.378906 77.128906 123.378906 77.894531 L 123.378906 79.746094 C 123.378906 80.515625 124 81.136719 124.769531 81.136719 Z M 124.769531 81.136719 "></path>
<path style="stroke: none; fill-rule: nonzero; fill: #e9e8e8; fill-opacity: 1" d="M 131.714844 79.75 C 131.714844 80.515625 131.089844 81.136719 130.324219 81.136719 C 129.558594 81.136719 128.933594 80.515625 128.933594 79.75 C 128.933594 78.980469 129.558594 78.359375 130.324219 78.359375 C 131.089844 78.359375 131.714844 78.980469 131.714844 79.75 Z M 131.714844 79.75 "></path>
<path style="stroke: none; fill-rule: nonzero; fill: #e9e8e8; fill-opacity: 1" d="M 113.65625 81.136719 C 114.425781 81.136719 115.046875 80.515625 115.046875 79.746094 L 115.046875 77.894531 C 115.046875 77.128906 114.425781 76.507812 113.65625 76.507812 C 112.890625 76.507812 112.269531 77.128906 112.269531 77.894531 L 112.269531 79.746094 C 112.269531 80.515625 112.890625 81.136719 113.65625 81.136719 Z M 113.65625 81.136719 "></path>
<path style="stroke: none; fill-rule: nonzero; fill: #e9e8e8; fill-opacity: 1" d="M 94.214844 69.101562 C 94.980469 69.101562 95.601562 68.476562 95.601562 67.710938 L 95.601562 65.859375 C 95.601562 65.089844 94.980469 64.46875 94.214844 64.46875 C 93.445312 64.46875 92.824219 65.089844 92.824219 65.859375 L 92.824219 67.710938 C 92.824219 68.476562 93.445312 69.101562 94.214844 69.101562 Z M 94.214844 69.101562 "></path>
<path style="stroke: none; fill-rule: nonzero; fill: #e9e8e8; fill-opacity: 1" d="M 99.769531 69.101562 C 100.535156 69.101562 101.15625 68.476562 101.15625 67.710938 L 101.15625 65.859375 C 101.15625 65.089844 100.535156 64.46875 99.769531 64.46875 C 99 64.46875 98.378906 65.089844 98.378906 65.859375 L 98.378906 67.710938 C 98.378906 68.476562 99 69.101562 99.769531 69.101562 Z M 99.769531 69.101562 "></path>
<path style="stroke: none; fill-rule: nonzero; fill: #e9e8e8; fill-opacity: 1" d="M 105.324219 69.101562 C 106.089844 69.101562 106.714844 68.476562 106.714844 67.710938 L 106.714844 65.859375 C 106.714844 65.089844 106.089844 64.46875 105.324219 64.46875 C 104.558594 64.46875 103.933594 65.089844 103.933594 65.859375 L 103.933594 67.710938 C 103.933594 68.476562 104.558594 69.101562 105.324219 69.101562 Z M 105.324219 69.101562 "></path>
<path style="stroke: none; fill-rule: nonzero; fill: #e9e8e8; fill-opacity: 1" d="M 84.492188 67.710938 C 84.492188 68.476562 83.867188 69.101562 83.101562 69.101562 C 82.335938 69.101562 81.714844 68.476562 81.714844 67.710938 C 81.714844 66.945312 82.335938 66.320312 83.101562 66.320312 C 83.867188 66.320312 84.492188 66.945312 84.492188 67.710938 Z M 84.492188 67.710938 "></path>
<path style="stroke: none; fill-rule: nonzero; fill: #e9e8e8; fill-opacity: 1" d="M 88.65625 69.101562 C 89.425781 69.101562 90.046875 68.476562 90.046875 67.710938 L 90.046875 65.859375 C 90.046875 65.089844 89.425781 64.46875 88.65625 64.46875 C 87.890625 64.46875 87.269531 65.089844 87.269531 65.859375 L 87.269531 67.710938 C 87.269531 68.476562 87.890625 69.101562 88.65625 69.101562 Z M 88.65625 69.101562 "></path>
</g>
</svg>
